<?xml version="1.0" standalone="no"?>
<!DOCTYPE svg PUBLIC "-//W3C//DTD SVG 20010904//EN"
 "http://www.w3.org/TR/2001/REC-SVG-20010904/DTD/svg10.dtd">
<svg version="1.0" xmlns="http://www.w3.org/2000/svg"
 width="192.000000pt" height="192.000000pt" viewBox="0 0 192.000000 192.000000"
 preserveAspectRatio="xMidYMid meet">
<metadata>
Created by potrace 1.14, written by Peter Selinger 2001-2017
</metadata>
<g transform="translate(0.000000,192.000000) scale(0.100000,-0.100000)"
fill="#000000" stroke="none">
<path d="M845 1859 c-22 -4 -54 -9 -72 -12 -32 -5 -92 -22 -128 -36 -31 -13
-159 -75 -165 -81 -3 -3 -23 -17 -45 -31 -59 -38 -174 -155 -221 -224 -62 -91
-124 -234 -140 -320 -19 -109 -23 -230 -11 -320 22 -160 90 -317 192 -445 30
-37 158 -160 168 -160 4 0 17 -8 28 -18 22 -21 175 -100 205 -106 10 -2 32 -9
47 -15 26 -10 50 -16 117 -27 52 -9 211 -11 252 -4 24 5 59 11 78 14 93 15
248 83 325 142 25 19 47 34 50 34 7 0 127 122 153 155 68 87 151 263 167 355
23 131 27 253 10 340 -3 19 -7 42 -9 50 -18 109 -97 275 -181 380 -30 37 -158
160 -168 160 -4 0 -17 8 -28 18 -22 21 -175 100 -205 106 -10 2 -32 9 -47 15
-26 10 -51 16 -117 27 -50 8 -216 11 -255 3z"/>
</g>
</svg>
